<mxfile host="app.diagrams.net" modified="2022-03-31T12:11:35.176Z" agent="5.0 (Windows NT 10.0; Win64; x64) AppleWebKit/537.36 (KHTML, like Gecko) Chrome/99.0.4844.82 Safari/537.36" etag="IFrEfBEjEDrtVS9hG0Me" version="17.2.4" type="github">
  <diagram id="C5RBs43oDa-KdzZeNtuy" name="Page-1">
    <mxGraphModel dx="5353" dy="2932" grid="1" gridSize="10" guides="1" tooltips="1" connect="1" arrows="1" fold="1" page="1" pageScale="1" pageWidth="827" pageHeight="1169" math="0" shadow="0">
      <root>
        <mxCell id="WIyWlLk6GJQsqaUBKTNV-0" />
        <mxCell id="WIyWlLk6GJQsqaUBKTNV-1" parent="WIyWlLk6GJQsqaUBKTNV-0" />
        <mxCell id="WIyWlLk6GJQsqaUBKTNV-6" value="Lamp&lt;br&gt;plugged in?" style="rhombus;whiteSpace=wrap;html=1;shadow=0;fontFamily=Helvetica;fontSize=12;align=center;strokeWidth=1;spacing=6;spacingTop=-4;" parent="WIyWlLk6GJQsqaUBKTNV-1" vertex="1">
          <mxGeometry x="250" y="-430" width="110" height="80" as="geometry" />
        </mxCell>
        <mxCell id="WIyWlLk6GJQsqaUBKTNV-7" value="Plug in lamp" style="rounded=1;whiteSpace=wrap;html=1;fontSize=12;glass=0;strokeWidth=1;shadow=0;" parent="WIyWlLk6GJQsqaUBKTNV-1" vertex="1">
          <mxGeometry x="510" y="-410" width="120" height="40" as="geometry" />
        </mxCell>
        <mxCell id="tuiUjmXvAQz7ytVitEx2-37" value="" style="group" vertex="1" connectable="0" parent="WIyWlLk6GJQsqaUBKTNV-1">
          <mxGeometry x="30" y="-270" width="1590" height="140" as="geometry" />
        </mxCell>
        <mxCell id="tuiUjmXvAQz7ytVitEx2-36" value="" style="rounded=1;whiteSpace=wrap;html=1;" vertex="1" parent="tuiUjmXvAQz7ytVitEx2-37">
          <mxGeometry width="1590" height="140" as="geometry" />
        </mxCell>
        <mxCell id="tuiUjmXvAQz7ytVitEx2-0" value="" style="ellipse;whiteSpace=wrap;html=1;" vertex="1" parent="tuiUjmXvAQz7ytVitEx2-37">
          <mxGeometry x="40.50955414012739" y="45" width="151.9108280254777" height="50" as="geometry" />
        </mxCell>
        <mxCell id="tuiUjmXvAQz7ytVitEx2-44" value="" style="group" vertex="1" connectable="0" parent="WIyWlLk6GJQsqaUBKTNV-1">
          <mxGeometry x="-330" y="90" width="680" height="820" as="geometry" />
        </mxCell>
        <mxCell id="tuiUjmXvAQz7ytVitEx2-42" value="&lt;h1&gt;&lt;br&gt;&lt;/h1&gt;" style="rounded=0;align=center;html=1;whiteSpace=wrap;spacingTop=0;horizontal=1;fontFamily=Roboto;fontSource=https%3A%2F%2Ffonts.googleapis.com%2Fcss%3Ffamily%3DRoboto;labelPosition=center;verticalLabelPosition=top;verticalAlign=bottom;labelBackgroundColor=none;" vertex="1" parent="tuiUjmXvAQz7ytVitEx2-44">
          <mxGeometry width="680" height="820" as="geometry" />
        </mxCell>
        <mxCell id="tuiUjmXvAQz7ytVitEx2-43" value="&lt;h1&gt;Portal&lt;/h1&gt;" style="text;html=1;strokeColor=none;fillColor=none;align=center;verticalAlign=middle;whiteSpace=wrap;rounded=0;labelBackgroundColor=none;fontFamily=Roboto;fontSource=https%3A%2F%2Ffonts.googleapis.com%2Fcss%3Ffamily%3DRoboto;" vertex="1" parent="tuiUjmXvAQz7ytVitEx2-44">
          <mxGeometry x="10" y="10" width="60" height="30" as="geometry" />
        </mxCell>
        <mxCell id="tuiUjmXvAQz7ytVitEx2-46" value="" style="group" vertex="1" connectable="0" parent="WIyWlLk6GJQsqaUBKTNV-1">
          <mxGeometry x="1210" y="70" width="680" height="820" as="geometry" />
        </mxCell>
        <mxCell id="tuiUjmXvAQz7ytVitEx2-47" value="&lt;h1&gt;&lt;br&gt;&lt;/h1&gt;" style="rounded=0;align=center;html=1;whiteSpace=wrap;spacingTop=0;horizontal=1;fontFamily=Roboto;fontSource=https%3A%2F%2Ffonts.googleapis.com%2Fcss%3Ffamily%3DRoboto;labelPosition=center;verticalLabelPosition=top;verticalAlign=bottom;labelBackgroundColor=none;" vertex="1" parent="tuiUjmXvAQz7ytVitEx2-46">
          <mxGeometry width="680" height="820" as="geometry" />
        </mxCell>
        <mxCell id="tuiUjmXvAQz7ytVitEx2-48" value="&lt;h1&gt;PM&lt;/h1&gt;" style="text;html=1;strokeColor=none;fillColor=none;align=center;verticalAlign=middle;whiteSpace=wrap;rounded=0;labelBackgroundColor=none;fontFamily=Roboto;fontSource=https%3A%2F%2Ffonts.googleapis.com%2Fcss%3Ffamily%3DRoboto;" vertex="1" parent="tuiUjmXvAQz7ytVitEx2-46">
          <mxGeometry x="10" y="10" width="60" height="30" as="geometry" />
        </mxCell>
        <mxCell id="tuiUjmXvAQz7ytVitEx2-49" value="" style="group" vertex="1" connectable="0" parent="WIyWlLk6GJQsqaUBKTNV-1">
          <mxGeometry x="560" y="90" width="420" height="820" as="geometry" />
        </mxCell>
        <mxCell id="tuiUjmXvAQz7ytVitEx2-50" value="&lt;h1&gt;&lt;br&gt;&lt;/h1&gt;" style="rounded=0;align=center;html=1;whiteSpace=wrap;spacingTop=0;horizontal=1;fontFamily=Roboto;fontSource=https%3A%2F%2Ffonts.googleapis.com%2Fcss%3Ffamily%3DRoboto;labelPosition=center;verticalLabelPosition=top;verticalAlign=bottom;labelBackgroundColor=none;" vertex="1" parent="tuiUjmXvAQz7ytVitEx2-49">
          <mxGeometry width="420" height="820" as="geometry" />
        </mxCell>
        <mxCell id="tuiUjmXvAQz7ytVitEx2-51" value="&lt;h1&gt;Database&lt;/h1&gt;" style="text;html=1;strokeColor=none;fillColor=none;align=center;verticalAlign=middle;whiteSpace=wrap;rounded=0;labelBackgroundColor=none;fontFamily=Roboto;fontSource=https%3A%2F%2Ffonts.googleapis.com%2Fcss%3Ffamily%3DRoboto;" vertex="1" parent="tuiUjmXvAQz7ytVitEx2-49">
          <mxGeometry x="39.99941176470588" y="10" width="37.05882352941177" height="30" as="geometry" />
        </mxCell>
      </root>
    </mxGraphModel>
  </diagram>
</mxfile>
